<?xml version="1.0" encoding="utf-8"?>
<!-- Generator: Adobe Illustrator 20.0.0, SVG Export Plug-In . SVG Version: 6.00 Build 0)  -->
<svg version="1.1" id="Layer_2" xmlns="http://www.w3.org/2000/svg" xmlns:xlink="http://www.w3.org/1999/xlink" x="0px" y="0px"
	 width="5776px" height="1518.4px" viewBox="0 0 5776 1518.4" enable-background="new 0 0 5776 1518.4" xml:space="preserve">
<path id="XMLID_45_" d="M2960.8,440.4c121.4-28.1,153.7-97.2,151.6-186.5c-2.4-104.1-92.9-205.5-196.1-205.2
	c-101.8,0.3-422.5-1.9-434.6-1.3l0.5,904.1c20.2,0,138.8,0.2,294.7,0c192.9-0.2,320.7-31.7,375.9-158.2
	C3208.5,666.1,3151.6,494.1,2960.8,440.4z M2527.1,86.7c28.7,0.1,375.4-0.7,408.1,2.9c58.4,6.4,133.8,87.1,132.5,168.6
	c-2,117.4-85,143.8-103.8,150.5c-22.4,8-58.7,12-107.4,13.7c0,0-243.1,0.3-327.8,0.2L2527.1,86.7z M2823.7,904.1
	c-3.2,0-24,0.2-28.1,0.3c-92.3,1.8-191.8,1.2-266.2,1.3c0,0-0.6-373.4-0.5-437c104.9-0.2,288.9-0.7,386.6,1.2
	c10,0.2,24.9,3.1,33.4,6c100.1,34.2,177,122,175.8,217.2C3123.2,802.5,3059.4,903.2,2823.7,904.1z"/>
<path stroke="#000000" stroke-width="0.15" stroke-miterlimit="10" d="M5398.5,1312.7c11.1,13,121.6,138.1,126.7,144.2h-21.2
	c-6.3-6.8-91.7-104.8-115-131.5c-9.2-10.5-16.5-13.7-34.1-13.9c-21.7-0.2-44.3-1.1-63.9-1.1c0,50.4-0.4,143-0.4,146.5
	c-2.7,0-14.1,0-17.8,0c0-4.2,0-312.3,0-321.6c64.6-2.6,158.7-3.4,192.8,7.7C5574.3,1178.5,5534.4,1312.2,5398.5,1312.7z
	 M5290.1,1150.6c0,0,0,107.8,0,131.4c-0.1,8.2,0.1,12.6,7.6,13.7c6.8,1,66.4,3.5,103.3,1.6c123.7-6.6,146.3-118.2,44.6-142.7
	C5423.9,1149.3,5330.5,1148.9,5290.1,1150.6z"/>
<path stroke="#000000" stroke-width="0.15" stroke-miterlimit="10" d="M299.5,1277.1c43.3-10,54.7-34.6,54-66.4
	c-0.9-37.1-33.1-73.2-69.8-73.1c-36.2,0.1-150.5-0.7-154.8-0.5l0.2,322c7.2,0,49.4,0.1,105,0c68.7-0.1,114.2-11.3,133.9-56.3
	C387.7,1357.4,367.4,1296.2,299.5,1277.1z M145,1151.1c10.2,0,133.7-0.3,145.3,1c20.8,2.3,47.7,31,47.2,60
	c-0.7,41.8-30.3,51.2-37,53.6c-8,2.8-20.9,4.3-38.3,4.9c0,0-86.6,0.1-116.8,0.1L145,1151.1z M250.6,1442.2c-1.1,0-8.6,0.1-10,0.1
	c-32.9,0.6-68.3,0.4-94.8,0.5c0,0-0.2-133-0.2-155.7c37.4-0.1,102.9-0.2,137.7,0.4c3.6,0.1,8.9,1.1,11.9,2.1
	c35.6,12.2,63,43.5,62.6,77.4C357.3,1406,334.6,1441.9,250.6,1442.2z"/>
<path stroke="#000000" stroke-width="0.15" stroke-miterlimit="10" d="M778.7,1152.8l-193.8-0.1c0,0-0.1,125.8,0,130.1l172.6,0.2
	v15.9c-14,0-141.5,0-172.3,0l0.2,141.2c33.5,0,203.3-0.2,203.3-0.2v16.3l-220.3,0.4l0.3-319.9c64.3,0,145.4-0.1,210,0L778.7,1152.8z
	"/>
<path stroke="#000000" stroke-width="0.15" stroke-miterlimit="10" d="M5057.7,1152.8l-193.8-0.1c0,0-0.1,125.8,0,130.1l172.6,0.2
	v15.9c-14,0-141.5,0-172.3,0l0.2,141.2c33.5,0,203.3-0.2,203.3-0.2v16.3l-220.3,0.4l0.3-319.9c64.3,0,145.4-0.1,210,0L5057.7,1152.8
	z"/>
<path stroke="#000000" stroke-width="0.15" stroke-miterlimit="10" d="M4216.1,1410.8c0-5.3,0-251,0-274.9h18.4
	c0.1,13.9,0.2,311.7,0.2,322.2c-69.9-80.7-225.1-258.4-237.3-274c0,17-0.4,234-0.3,272.9c0,0-12.9,0-18.3,0v-324.2
	C4056.7,1226.2,4216.1,1410.8,4216.1,1410.8z"/>
<path stroke="#000000" stroke-width="0.15" stroke-miterlimit="10" d="M1798.7,1138.7c0,1.7-0.1,12.1-0.1,16.3
	c10.1,0,81.2,0.2,122.1,0.1c1.2,0,3.4,0.2,3.4,3.9c0,49.8,0,288.4-0.2,298c0.8,0,7.1,0,9.7,0h0.5c2.6,0,8.4,0,9.2,0
	c-0.2-9.6-0.2-248.2-0.2-298c0-3.7,2.3-3.9,3.4-3.9c40.9,0.1,112.5-0.1,122.6-0.1c0-4.2-0.1-14.6-0.1-16.3c-17.3,0-81.1,0-135.2,0
	C1933.7,1138.7,1816,1138.7,1798.7,1138.7z"/>
<path stroke="#000000" stroke-width="0.15" stroke-miterlimit="10" d="M4406.4,1138.7c0,1.7-0.1,12.1-0.1,16.3
	c10.1,0,81.2,0.2,122.1,0.1c1.2,0,3.4,0.2,3.4,3.9c0,49.8,0,288.4-0.2,298c0.8,0,7.1,0,9.7,0h0.5c2.6,0,8.4,0,9.2,0
	c-0.2-9.6-0.2-248.2-0.2-298c0-3.7,2.3-3.9,3.4-3.9c40.9,0.1,112.5-0.1,122.6-0.1c0-4.2-0.1-14.6-0.1-16.3c-17.3,0-81.1,0-135.2,0
	C4541.4,1138.7,4423.7,1138.7,4406.4,1138.7z"/>
<path stroke="#000000" stroke-width="0.15" stroke-miterlimit="10" d="M2340.8,1456.8c-0.1-12,0.4-126.7-1.1-152.9
	c-0.1-2.4-0.8-5.1-1.2-5.6c-9.1-13-109.3-149.8-118.5-162.4l19.9-0.1c9.8,13.2,105.7,146.5,109.6,147.5h1.4
	c2.2-0.5,93.2-126.2,108.8-147.5l20,0.1c-9.2,12.7-109.4,149.4-118.5,162.4c-0.4,0.5-1,3.2-1.2,5.6c-1.5,26.2-1,140.8-1.1,152.9
	H2340.8z"/>
<path stroke="#000000" stroke-width="0.15" stroke-miterlimit="10" d="M3638,1465.2c56.7-0.1,96.4-22.7,113.9-63.5
	c17.1-39.8,14.2-126.8,11.2-266.2h-17.7c0,0,0,1.3,0.1,3.8c4.4,186.5,4.7,232.7-16.8,267.3c-21.3,34.3-66.6,43.7-91.5,42.5l0,0
	c-24.1,1-70.2-8.2-91.5-42.5c-21.5-34.6-21.2-80.8-16.8-267.3c0.1-2.5,0.1-3.8,0.1-3.8h-17.7c-2.9,139.4-5.9,226.4,11.2,266.2
	c17.5,40.8,57.2,63.3,113.9,63.5H3638z"/>
<path stroke="#000000" stroke-width="0.15" stroke-miterlimit="10" d="M1511.5,1465.2c56.7-0.1,96.4-22.7,113.9-63.5
	c17.1-39.8,14.2-126.8,11.2-266.2H1619c0,0,0,1.3,0.1,3.8c4.4,186.5,4.7,232.7-16.8,267.3c-21.3,34.3-66.6,43.7-91.5,42.5l0,0
	c-24.1,1-70.2-8.2-91.5-42.5c-21.5-34.6-21.2-80.8-16.8-267.3c0.1-2.5,0.1-3.8,0.1-3.8h-17.7c-2.9,139.4-5.9,226.4,11.2,266.2
	c17.5,40.8,57.2,63.3,113.9,63.5H1511.5z"/>
<path stroke="#000000" stroke-width="0.15" stroke-miterlimit="10" d="M2746.5,1450.3c-76-0.6-112.1-67-111.6-151
	c0.6-97.1,52.3-159.8,113-159.8c51.4,0,90.2,30.7,100.5,74.4c2.4-0.7,13.6-5.6,13.6-5.6c-3.9-35.6-41.5-69.5-77.6-78.7
	c-59.1-15.1-112,5.6-142.4,62.5c-17.8,33.3-24.1,70.9-23.7,113.2c0.3,36.4,11,141.4,100.3,157.1c59.1,10.4,132.1-5.4,147-93.3
	c-1.5-0.3-15.3-6-15.3-6C2842.5,1411.3,2812.4,1450.8,2746.5,1450.3z"/>
<path stroke="#000000" stroke-width="0.15" stroke-miterlimit="10" d="M1206.4,1456.9h19.1c0,0-131.3-329.2-132-331l-146.2,331
	l18.8-0.2l45.3-101.4l136-0.2l-5.2-15.1l-125.3,0l75.8-174.9L1206.4,1456.9z"/>
<path stroke="#000000" stroke-width="0.15" stroke-miterlimit="10" d="M3298.5,1192c-24.8-44.7-64.1-67.1-109.5-67.2
	c-45.4,0.2-84.6,22.5-109.5,67.2c-18.5,33.3-25,70.9-24.5,113.2c0.3,36.4,10.6,140.5,103.3,157c9.9,1.8,20.2,2.8,30.7,2.9
	c10.5-0.1,20.8-1.1,30.7-2.9c92.8-16.5,103-120.6,103.3-157C3323.4,1262.9,3316.9,1225.3,3298.5,1192z M3189.3,1450.8l-0.9-0.1
	c-78.3,0.2-118.8-70-117.3-154.4c1.8-98.9,55.2-158.6,118.2-157.4v0.1c62.9-1.1,116.1,58.6,117.9,157.4
	C3308.6,1380.8,3267.4,1451.1,3189.3,1450.8z"/>
<path d="M5590.7,1142.6v44.9h-6.8v-44.9h-15.3v-5.9h37.2v5.9H5590.7z"/>
<path d="M5661.1,1187.5c0-1.4,0.9-42.6,0.9-42.6l-16.1,42.6h-5.3l-15.8-42c0,0,0.7,40.5,0.7,42h-6.6v-50.8h8.8l15.6,41.7l15.7-41.7
	h8.8v50.8H5661.1z"/>
</svg>
