<svg id="logo" data-name="Layer 1" xmlns="http://www.w3.org/2000/svg" viewBox="0 0 280.2 62.2">
  <title>btc-logo-mobile</title>
  <g>
    <g>
      <path d="M31,62.2A5.3,5.3,0,0,1,26.5,60h-.1l-2.6,2h-.1c.1-1,.1-2.2.1-3.1V40.3a5.3,5.3,0,0,0-.1-1.1,1.5,1.5,0,0,0-.8-1.3,3.5,3.5,0,0,0-1.4-.4v-.2h5.8c.1,0,.3.1.3.3s-.1,2.7-.1,4.2v7.4h.1A4.3,4.3,0,0,1,32,46.1c3.1,0,6.2,2.1,6.2,8.1S34.4,62.2,31,62.2ZM28.6,48.1a7.7,7.7,0,0,0-1.1,4.5v3.9a8.1,8.1,0,0,0,.8,4,2.9,2.9,0,0,0,2.4,1.4c2.3,0,3.3-3.3,3.3-7.5s-1.1-7.5-3-7.5A2.9,2.9,0,0,0,28.6,48.1Z" />
      <path d="M44,53.3c0,3.7.7,5.8,1.7,6.9a3.2,3.2,0,0,0,2.5,1c3,0,4.1-2.1,4.8-4.4h.4a6.1,6.1,0,0,1-6,5.3,7.2,7.2,0,0,1-5.1-1.8,8,8,0,0,1-2.3-6.2c0-5.1,3.2-8.1,7-8.1s6.6,3.1,6.6,6.1c0,.3,0,.8,0,1.1Zm4.8-6a2.4,2.4,0,0,0-1.8-.7,2.1,2.1,0,0,0-1.7.7c-.8.8-1.2,2.6-1.3,5.5h4.5c.9,0,1.3-.3,1.3-1.5A6.2,6.2,0,0,0,48.8,47.3Z" />
      <path d="M64.3,61.9h0l.8-.2c.7-.3.9-.5,1.1-1.5a12.6,12.6,0,0,0,.2-2.7V50.7c0-1.5-.1-2.2-.5-2.7a2,2,0,0,0-1.8-.8c-1.5,0-3.3,1.6-3.5,4.2-.1.9-.1,1.7-.1,2.8v3.1a15.8,15.8,0,0,0,.1,2.7c.2,1,.5,1.2,1.2,1.5l.8.2h-8l.9-.2c.5-.2.9-.4,1.2-1.4a18.2,18.2,0,0,0,.1-3V41.4a17,17,0,0,0-.1-2.3,1.4,1.4,0,0,0-.7-1.2,3.5,3.5,0,0,0-1.4-.4v-.2h5.8c.2,0,.2.1.2.3s-.1,2.6-.1,4.2V50h.1a5.3,5.3,0,0,1,2.1-2.9,5.9,5.9,0,0,1,3-1,4.6,4.6,0,0,1,3.6,1.3,5.8,5.8,0,0,1,.9,3.5v6.2a15.1,15.1,0,0,0,.2,3,1.6,1.6,0,0,0,1.2,1.4l.8.2h-8Z" />
      <path d="M73.2,61.9H74a1.6,1.6,0,0,0,1.2-1.4,10.2,10.2,0,0,0,.1-2.2V51c0-.7,0-2.2-.1-2.8a1.7,1.7,0,0,0-.6-1.2,2,2,0,0,0-1.2-.3v-.2h5.5c.2,0,.3.1.3.3s0,1.3,0,2.3v9a10.2,10.2,0,0,0,.1,2.2,1.7,1.7,0,0,0,1.2,1.4H73.2Zm4-19.3a2.1,2.1,0,0,1-2.1-2.1,2.2,2.2,0,1,1,4.3,0A2.1,2.1,0,0,1,77.2,42.6Z" />
      <path d="M91.6,61.9h0l.8-.2c.7-.3,1-.5,1.2-1.5a15.4,15.4,0,0,0,.1-2.7V50.7c0-1.5-.1-2.2-.5-2.7a2,2,0,0,0-1.8-.7c-1.1,0-3,1.2-3.2,4.1-.1.9-.1,1.8-.1,2.9v3.1a15.2,15.2,0,0,0,.1,2.7c.2,1,.5,1.2,1.2,1.5l.8.2h-8l.8-.2a1.6,1.6,0,0,0,1.2-1.4,15.3,15.3,0,0,0,.1-3V51c0-.7,0-2.2-.1-2.8a1.8,1.8,0,0,0-.6-1.2,2.3,2.3,0,0,0-1.2-.3v-.2h5.5c.1,0,.2.1.2.3S88,49.8,88,50h.1a5.5,5.5,0,0,1,2-2.8,5.7,5.7,0,0,1,3-1c1.7,0,2.7.3,3.3,1.2a5.9,5.9,0,0,1,1,3.6v6.2a15.2,15.2,0,0,0,.1,3,1.6,1.6,0,0,0,1.2,1.4l.8.2h-8Z" />
      <path d="M111.8,62a.2.2,0,0,1-.1-.2V59.1h0a4.5,4.5,0,0,1-4.5,3.1c-3.3,0-6.4-2.4-6.4-8s3.3-8.1,6.9-8.1a3.9,3.9,0,0,1,3.9,2.7h0V41.6c0-.6,0-2.1-.1-2.6a1.7,1.7,0,0,0-.8-1.3,3.2,3.2,0,0,0-1.2-.3h5.8a.3.3,0,0,1,.2.3c0,1.4-.1,5.8-.1,7.6V57.9a21.7,21.7,0,0,0,.1,2.2,1.8,1.8,0,0,0,.8,1.4,3.1,3.1,0,0,0,1.3.3h-5.8Zm-.2-10.3a5.9,5.9,0,0,0-1-3.9,2.8,2.8,0,0,0-2.3-1.2c-1.9,0-3.3,2.8-3.3,7.5s1.4,7.2,3.2,7.2,3.5-1.7,3.5-5Z" />
      <path d="M129.7,47.3c-.8,2.6-1.4,4.1-1.4,4.1a23.5,23.5,0,0,0-1,3.4c0,.3.1.4.3.4s1.7-1,2.3-2h.2c-.8,1.4-2.3,2.8-3.8,2.8a1.1,1.1,0,0,1-1.1-1.2,22,22,0,0,1,1.1-3.8s.5-1.4,1.3-3.8h-1.2v-.4h1.2l1-3h2l-1,3h2v.4Z" />
      <path d="M136.7,56.1a1.1,1.1,0,0,1-1.1-1.2,19,19,0,0,1,1.2-3.8,15.9,15.9,0,0,0,1-3c0-.4-.1-.5-.4-.5s-2.3,1.7-3.9,5.5l-1,2.9h-2.1l3.9-12a5.2,5.2,0,0,0,.3-1.3.9.9,0,0,0-.2-.7l-.8-.3h3.3c.1,0,.1.1.1.1a3.6,3.6,0,0,1-.3.7l-.6,1.8L134,50.7h.1c1.6-3,3-4,4.1-4s1.3.6,1.3,1.5a11.9,11.9,0,0,1-1,3.4,18,18,0,0,0-.9,3.1c0,.3.1.4.3.4s1.6-.9,2.2-2h.2C139.6,54.6,138.2,56.1,136.7,56.1Z" />
      <path d="M147.5,49.7a14,14,0,0,1-4.2,1.9,12.7,12.7,0,0,0-.3,2.4c0,.9.4,1.5,1,1.5s2.6-1.4,3.1-2.3h.2a4.7,4.7,0,0,1-4.1,2.8c-1.5,0-2.4-1.3-2.4-3.1a6.5,6.5,0,0,1,2.5-5,4.8,4.8,0,0,1,2.9-1.4c1.5,0,2,.6,2,1.6A1.9,1.9,0,0,1,147.5,49.7ZM146.1,47c-1.2,0-2.2,2.1-2.7,4.4a6.4,6.4,0,0,0,2.5-1.4,3.5,3.5,0,0,0,.8-2.1C146.6,47.4,146.5,47,146.1,47Z" />
      <path d="M161.3,62.2a7,7,0,0,1-5.1-2A8.6,8.6,0,0,1,154,54a7.5,7.5,0,0,1,7.3-7.9,6.2,6.2,0,0,1,4.5,1.6,2.8,2.8,0,0,1,.8,1.8,1.6,1.6,0,0,1-1.6,1.7c-1.4,0-1.8-.8-2-2.1s-.6-2.6-1.9-2.6a3,3,0,0,0-1.9.8c-.8.9-1.3,3.3-1.3,6.2s.5,5.4,1.3,6.8a2.3,2.3,0,0,0,2.2,1.2c3.1,0,4.3-2.7,4.9-4.6h.4C166.3,59.8,164.4,62.2,161.3,62.2Z" />
      <path d="M175.6,62.2a8.1,8.1,0,1,1,7.7-8.1A7.8,7.8,0,0,1,175.6,62.2Zm2.1-14.8a2.5,2.5,0,0,0-2.1-.9,2.8,2.8,0,0,0-2.1.9c-1,1.1-1.5,3.8-1.5,6.8s.5,5.7,1.5,6.8a2.8,2.8,0,0,0,4.2,0c.9-1.1,1.5-3.8,1.5-6.8S178.7,48.5,177.7,47.4Z" />
      <path d="M195.7,62h-.1a6.3,6.3,0,0,1,0-.8V58.8h-.1a5.5,5.5,0,0,1-1.6,2.4,4.7,4.7,0,0,1-3,1,4.5,4.5,0,0,1-3.5-1.3,5.6,5.6,0,0,1-1-3.5V50.7a17.3,17.3,0,0,0-.1-2.4c-.1-.7-.3-1.1-.7-1.4a3.5,3.5,0,0,0-1.3-.3h5.7c.1,0,.2,0,.2.3s0,2.6,0,4.2v7.1a4.5,4.5,0,0,0,.5,2.4,2,2,0,0,0,1.8.8c1.3,0,2.7-1.7,3-4.2a17.3,17.3,0,0,0,.1-2.4V50.5a20.7,20.7,0,0,0-.1-2.2,1.7,1.7,0,0,0-.7-1.4,3.4,3.4,0,0,0-1.3-.3H199a.3.3,0,0,1,.3.3c0,.6,0,2.6,0,4.2v6.8c0,.6,0,1.7.1,2.3a1.8,1.8,0,0,0,.7,1.4,3,3,0,0,0,1.3.3h-5.7Z" />
      <path d="M211.6,61.9h0l.8-.2c.7-.3,1-.5,1.2-1.5a15.4,15.4,0,0,0,.1-2.7V50.7c0-1.5-.1-2.2-.5-2.7a2,2,0,0,0-1.8-.7c-1.1,0-3,1.2-3.2,4.1-.1.9-.1,1.8-.1,2.9v3.1a15.2,15.2,0,0,0,.1,2.7c.2,1,.5,1.2,1.2,1.5l.8.2h-8l.8-.2a1.6,1.6,0,0,0,1.2-1.4,15.3,15.3,0,0,0,.1-3V51c0-.7,0-2.2-.1-2.8a1.8,1.8,0,0,0-.6-1.2,2.3,2.3,0,0,0-1.2-.3v-.2h5.5c.1,0,.2.1.2.3s-.1,3.1-.1,3.3h.1a5.5,5.5,0,0,1,2-2.8,5.7,5.7,0,0,1,3-1c1.7,0,2.7.3,3.3,1.2a5.9,5.9,0,0,1,1,3.6v6.2a15.2,15.2,0,0,0,.1,3,1.6,1.6,0,0,0,1.2,1.4l.8.2h-8Z" />
      <path d="M230.7,59.8a4.9,4.9,0,0,1-7.2,1.4,3.5,3.5,0,0,1-1-2.9c0-.7.1-9.5.1-11.3h-2.1v-.3c2.6-.5,4.4-2.2,5.5-6.6h.4v6.3h3.5v.6h-3.5V58.8c0,1.3.4,2.2,1.9,2.2a2.9,2.9,0,0,0,2.4-1.3Z" />
      <path d="M235.4,53.3c0,3.7.7,5.8,1.7,6.9a3.2,3.2,0,0,0,2.5,1c3,0,4.1-2.1,4.8-4.4h.4a6.1,6.1,0,0,1-6,5.3,7.2,7.2,0,0,1-5.1-1.8,8,8,0,0,1-2.3-6.2c0-5.1,3.2-8.1,7-8.1s6.6,3.1,6.6,6.1c0,.3,0,.8,0,1.1Zm4.8-6a2.4,2.4,0,0,0-1.8-.7,2.1,2.1,0,0,0-1.7.7c-.8.8-1.2,2.6-1.3,5.5h4.5c.9,0,1.3-.3,1.3-1.5A6.2,6.2,0,0,0,240.1,47.3Z" />
      <path d="M256.7,50.4a1.9,1.9,0,0,1-1.8-1.5c-.3-.6-.4-.9-.8-.9s-1.9,1.8-2.2,4.5c0,.3-.1,1.3-.1,2.2v2.7a16,16,0,0,0,.1,2.7,1.6,1.6,0,0,0,1.2,1.5l.9.2h-8.1l.9-.2c.6-.3.9-.4,1.1-1.4a14.9,14.9,0,0,0,.2-3V51c0-.6,0-2.2-.1-2.8a1.6,1.6,0,0,0-.6-1.2,2.7,2.7,0,0,0-1.2-.3v-.2h5.5a.2.2,0,0,1,.2.3c0,.1,0,3.6,0,3.7h0a7,7,0,0,1,1.9-3.4,3.8,3.8,0,0,1,2.4-.9,3,3,0,0,1,1.8.6,2.4,2.4,0,0,1,.5,1.7A1.8,1.8,0,0,1,256.7,50.4Z" />
    </g>
    <rect x="125.2" y="59.4" width="20.2" height="1" />
  </g>
  <g>
    <g>
      <path d="M273.5,9.8l6.6,7.5h-1.1l-6-6.8a2,2,0,0,0-1.8-.7h-3.3c0,2.6,0,7.4,0,7.6h-.9c0-.2,0-16.2,0-16.7,3.4-.1,8.2-.2,10,.4C282.6,2.8,280.5,9.7,273.5,9.8Zm-5.6-8.4s0,5.6,0,6.8,0,.7.4.7a51.1,51.1,0,0,0,5.4.1c6.4-.3,7.6-6.1,2.3-7.4A56.1,56.1,0,0,0,267.8,1.3Z" />
      <path d="M8.9,7.9c2.2-.5,2.8-1.8,2.8-3.4A3.9,3.9,0,0,0,8,.7H0V17.3H5.5c3.6,0,5.9-.6,6.9-2.9S12.4,8.9,8.9,7.9ZM.8,1.4H8.4a3.3,3.3,0,0,1,2.4,3.1A2.7,2.7,0,0,1,8.9,7.3l-2,.3H.9ZM6.3,16.5H.9s0-6.9,0-8.1H8.6a4.5,4.5,0,0,1,3.2,4C11.9,14.6,10.7,16.5,6.3,16.5Z" />
      <path d="M33.7,1.5H23.7s0,6.5,0,6.8h9V9H23.7v7.3H34.2v.8H22.8V.6H33.7Z" />
      <path d="M255.8,1.5H245.7s0,6.5,0,6.8h9V9h-8.9v7.3h10.5v.8H244.9V.6h10.9Z" />
      <path d="M212.1,14.8V.6h1c0,.7,0,16.2,0,16.7L200.7,3.1c0,.9,0,12.1,0,14.2h-.9V.4C203.8,5.3,212.1,14.8,212.1,14.8Z" />
      <path d="M86.7.7v.8H93c.1,0,.2,0,.2.2,0,2.6,0,15,0,15.5h1c0-.5,0-12.9,0-15.5,0-.2.1-.2.2-.2h6.4V.7h-14Z" />
      <path d="M222,.7v.8h6.3c.1,0,.2,0,.2.2,0,2.6,0,15,0,15.5h1c0-.5,0-12.9,0-15.5,0-.2.1-.2.2-.2H236V.7H222Z" />
      <path d="M114.8,17.2c0-.6,0-6.6-.1-7.9V9L108.5.6h1c.5.7,5.5,7.6,5.7,7.7h.1c.1,0,4.8-6.5,5.6-7.7h1L115.8,9v.3c-.1,1.4,0,7.3-.1,7.9Z" />
      <path d="M182.1,17.7c2.9,0,5-1.2,5.9-3.3s.7-6.6.6-13.8h-.9V.8c.2,9.7.2,12.1-.9,13.9a5.5,5.5,0,0,1-4.7,2.2h0c-1.3.1-3.6-.4-4.7-2.2s-1.1-4.2-.9-13.9V.6h-.9c-.2,7.2-.3,11.7.6,13.8s3,3.3,5.9,3.3Z" />
      <path d="M71.8,17.7c2.9,0,5-1.2,5.9-3.3s.7-6.6.6-13.8h-.9V.8c.2,9.7.2,12.1-.9,13.9a5.5,5.5,0,0,1-4.7,2.2h0c-1.3.1-3.6-.4-4.7-2.2S65.9,10.4,66.1.8V.6h-.9c-.2,7.2-.3,11.7.6,13.8s3,3.3,5.9,3.3Z" />
      <path d="M135.8,16.9c-3.9,0-5.8-3.5-5.8-7.8S132.8.8,135.9.8a5.1,5.1,0,0,1,5.2,3.9l.7-.3c-.2-1.8-2.2-3.6-4-4.1a6.2,6.2,0,0,0-7.4,3.2,11.9,11.9,0,0,0-1.2,5.9c0,1.9.6,7.3,5.2,8.2,3.1.5,6.9-.3,7.6-4.8l-.8-.3A5,5,0,0,1,135.8,16.9Z" />
    </g>
    <path d="M55.9,17.2h1L50.1.1,42.5,17.2h1L45.8,12H53l-.3-.8H46.1L50,2.1Z" />
    <path d="M164.5,3.5a6.4,6.4,0,0,0-11.4,0,11.6,11.6,0,0,0-1.3,5.9c0,1.9.5,7.3,5.4,8.1l1.6.2,1.6-.2c4.8-.9,5.3-6.3,5.4-8.1A11.6,11.6,0,0,0,164.5,3.5Zm-5.7,13.4h0c-4.1,0-6.2-3.6-6.1-8S155.5.7,158.8.7h0c3.3-.1,6,3,6.1,8.2S162.9,16.9,158.8,16.9Z" />
  </g>
  <rect y="29.1" width="280.2" height="1" />
</svg>
