<?xml version="1.0" encoding="utf-8"?>
<!-- Generator: Adobe Illustrator 20.0.0, SVG Export Plug-In . SVG Version: 6.00 Build 0)  -->
<svg version="1.1" id="logo" xmlns="http://www.w3.org/2000/svg" xmlns:xlink="http://www.w3.org/1999/xlink" x="0px" y="0px"  viewBox="0 0 966.3 185.3" enable-background="new 0 0 966.3 185.3" xml:space="preserve">
<g>
	<g>
		<path d="M890.6,29.8c1.8,2.1,19.3,21.9,20.1,22.9h-3.4c-1-1.1-14.5-16.6-18.2-20.9c-1.5-1.7-2.6-2.2-5.4-2.2
			c-3.5,0-7-0.2-10.1-0.2c0,8-0.1,22.7-0.1,23.2c-0.4,0-2.2,0-2.8,0c0-0.7,0-49.5,0-51c10.3-0.4,25.2-0.5,30.6,1.2
			C918.5,8.5,912.1,29.7,890.6,29.8z M873.4,4.1c0,0,0,17.1,0,20.9c0,1.3,0,2,1.2,2.2c1.1,0.2,10.5,0.6,16.4,0.3
			c19.6-1,23.2-18.8,7.1-22.6C894.6,3.9,879.8,3.8,873.4,4.1z"/>
		<path d="M81.6,24.2c6.9-1.6,8.7-5.5,8.6-10.5C90.1,7.7,84.9,2,79.1,2c-5.8,0-23.9-0.1-24.6-0.1l0,51.1c1.1,0,7.8,0,16.7,0
			c10.9,0,18.1-1.8,21.2-8.9C95.6,36.9,92.4,27.2,81.6,24.2z M57.1,4.2c1.6,0,21.2,0,23.1,0.2c3.3,0.4,7.6,4.9,7.5,9.5
			c-0.1,6.6-4.8,8.1-5.9,8.5c-1.3,0.5-3.3,0.7-6.1,0.8c0,0-13.7,0-18.5,0L57.1,4.2z M73.9,50.4c-0.2,0-1.4,0-1.6,0
			c-5.2,0.1-10.8,0.1-15,0.1c0,0,0-21.1,0-24.7c5.9,0,16.3,0,21.8,0.1c0.6,0,1.4,0.2,1.9,0.3c5.7,1.9,10,6.9,9.9,12.3
			C90.8,44.6,87.2,50.3,73.9,50.4z"/>
		<path d="M157.7,4.4l-30.7,0c0,0,0,20,0,20.6l27.4,0v2.5c-2.2,0-22.4,0-27.3,0l0,22.4c5.3,0,32.2,0,32.2,0v2.6l-34.9,0.1l0-50.8
			c10.2,0,23.1,0,33.3,0L157.7,4.4z"/>
		<path d="M836.5,4.4l-30.7,0c0,0,0,20,0,20.6l27.4,0v2.5c-2.2,0-22.4,0-27.3,0l0,22.4c5.3,0,32.2,0,32.2,0v2.6l-34.9,0.1l0-50.8
			c10.2,0,23.1,0,33.3,0L836.5,4.4z"/>
		<path d="M703,45.4c0-0.8,0-39.8,0-43.6h2.9c0,2.2,0,49.4,0,51.1c-11.1-12.8-35.7-41-37.7-43.5c0,2.7-0.1,37.1,0,43.3
			c0,0-2.1,0-2.9,0V1.3C677.7,16.1,703,45.4,703,45.4z"/>
		<path d="M319.5,2.2c0,0.3,0,1.9,0,2.6c1.6,0,12.9,0,19.4,0c0.2,0,0.5,0,0.5,0.6c0,7.9,0,45.7,0,47.3c0.1,0,1.1,0,1.5,0h0.1
			c0.4,0,1.3,0,1.5,0c0-1.5,0-39.4,0-47.3c0-0.6,0.4-0.6,0.5-0.6c6.5,0,17.8,0,19.5,0c0-0.7,0-2.3,0-2.6c-2.7,0-12.9,0-21.4,0
			C340.9,2.2,322.2,2.2,319.5,2.2z"/>
		<path d="M733.2,2.2c0,0.3,0,1.9,0,2.6c1.6,0,12.9,0,19.4,0c0.2,0,0.5,0,0.5,0.6c0,7.9,0,45.7,0,47.3c0.1,0,1.1,0,1.5,0h0.1
			c0.4,0,1.3,0,1.5,0c0-1.5,0-39.4,0-47.3c0-0.6,0.4-0.6,0.5-0.6c6.5,0,17.8,0,19.5,0c0-0.7,0-2.3,0-2.6c-2.7,0-12.9,0-21.4,0
			C754.6,2.2,735.9,2.2,733.2,2.2z"/>
		<path d="M405.5,52.7c0-1.9,0.1-20.1-0.2-24.2c0-0.4-0.1-0.8-0.2-0.9c-1.4-2.1-17.3-23.8-18.8-25.8l3.1,0
			c1.5,2.1,16.8,23.2,17.4,23.4h0.2c0.3-0.1,14.8-20,17.3-23.4l3.2,0c-1.5,2-17.4,23.7-18.8,25.8c-0.1,0.1-0.2,0.5-0.2,0.9
			c-0.2,4.2-0.2,22.3-0.2,24.2H405.5z"/>
		<path d="M611.3,54c9,0,15.3-3.6,18.1-10.1c2.7-6.3,2.2-20.1,1.8-42.2h-2.8c0,0,0,0.2,0,0.6c0.7,29.6,0.7,36.9-2.7,42.4
			c-3.4,5.4-10.6,6.9-14.5,6.7l0,0c-3.8,0.2-11.1-1.3-14.5-6.7c-3.4-5.5-3.4-12.8-2.7-42.4c0-0.4,0-0.6,0-0.6h-2.8
			c-0.5,22.1-0.9,35.9,1.8,42.2c2.8,6.5,9.1,10,18.1,10.1H611.3z"/>
		<path d="M273.9,54c9,0,15.3-3.6,18.1-10.1c2.7-6.3,2.2-20.1,1.8-42.2H291c0,0,0,0.2,0,0.6c0.7,29.6,0.7,36.9-2.7,42.4
			c-3.4,5.4-10.6,6.9-14.5,6.7l0,0c-3.8,0.2-11.1-1.3-14.5-6.7c-3.4-5.5-3.4-12.8-2.7-42.4c0-0.4,0-0.6,0-0.6h-2.8
			c-0.5,22.1-0.9,35.9,1.8,42.2c2.8,6.5,9.1,10,18.1,10.1H273.9z"/>
		<path d="M469.8,51.6c-12.1-0.1-17.8-10.6-17.7-24c0.1-15.4,8.3-25.3,17.9-25.3c8.2,0,14.3,4.9,15.9,11.8c0.4-0.1,2.2-0.9,2.2-0.9
			c-0.6-5.7-6.6-11-12.3-12.5c-9.4-2.4-17.8,0.9-22.6,9.9c-2.8,5.3-3.8,11.2-3.8,18c0.1,5.8,1.7,22.4,15.9,24.9
			c9.4,1.6,21-0.9,23.3-14.8c-0.2-0.1-2.4-0.9-2.4-0.9C485.1,45.5,480.3,51.7,469.8,51.6z"/>
	</g>
	<path d="M225.5,52.7h3c0,0-20.8-52.2-20.9-52.5l-23.2,52.5l3,0l7.2-16.1l21.9,0l-0.8-2.4l-20.2,0l12-27.8L225.5,52.7z"/>
	<path d="M557.4,10.7C553.5,3.6,547.2,0,540,0c-7.2,0-13.4,3.6-17.4,10.7c-2.9,5.3-4,11.2-3.9,18c0.1,5.8,1.7,22.3,16.4,24.9
		c1.6,0.3,3.2,0.4,4.9,0.5c1.7,0,3.3-0.2,4.9-0.5c14.7-2.6,16.3-19.1,16.4-24.9C561.4,21.9,560.3,15.9,557.4,10.7z M540.1,51.7
		l-0.1,0c-12.4,0-18.8-11.1-18.6-24.5c0.3-15.7,8.8-25.2,18.7-25v0c10-0.2,18.4,9.3,18.7,25C559,40.6,552.5,51.8,540.1,51.7z"/>
</g>
<g>
	<path d="M39.1,183.4H0v-0.7c1-0.1,2.6-0.4,3.4-0.7c2.1-0.7,4-2.3,4.7-4.1c1.7-4.7,1.8-13.7,1.8-22.8v-36.4c0-9.1-0.1-18-1.8-22.5
		c-0.7-2.3-2.6-3.7-4.7-4.4C2.4,91.4,1,91.1,0,91v-0.7h33.4c17,0,30.2,4.7,30.2,21c0,8.9-5.5,14.3-10.3,17.1
		c-3.5,2.1-7.5,3.5-11.3,4.5v0.4c15,1.1,26.9,9.4,26.9,23.2C68.9,172.3,57.3,183.4,39.1,183.4z M31.9,92.1h-4.4
		c-3.5,0-6.5,0.7-7.5,4.7c-0.4,1.8-0.4,3.7-0.4,7.8l-0.1,28.1h16c6.2,0,11.1-3.4,13.7-6.8c3.1-4.1,4.1-9.9,4.1-14.6
		C53.3,98.7,46.9,92.1,31.9,92.1z M52,139.6c-3.8-3.1-7.8-5.1-16.6-5.1h-16l0.1,30.6c0,5.7,0,9.9,1,12c1.3,2.8,4,4.4,8.4,4.4h7.9
		c6.9,0,12.3-1.8,15.9-5.8c4.1-4.7,5.5-10.5,5.5-18.6C58.2,149.2,56.5,143.4,52,139.6z"/>
	<path d="M93.8,175.8c3.3,3.7,7.4,5.4,12.2,5.4c11.8,0,16.6-7.2,19-17l1.6,0.4c-2.8,13-10.3,20-21.3,20c-8.1,0-15.2-1.8-20.5-8.1
		c-5.2-6.1-7.1-13-7.1-22.1c0-18,10.2-31.5,26.1-31.5c16.4,0,23.1,11.3,23.1,21.1c0,1.3,0,3.5-0.1,5.2H87.3v1.8
		C87.2,161.2,89.3,170.7,93.8,175.8z M87.4,147.6H112c4.7,0,5.5-0.9,5.5-6.8c0-6.9-2.1-11.1-4.8-13.2c-2.6-2-5.1-3-8.8-3
		c-3.7,0-6.9,1.1-9.5,3.4C90.3,131.6,88.1,137.7,87.4,147.6z"/>
	<path d="M170.9,183.4v-0.6c1.4-0.1,2.4-0.3,3.7-0.8c2.3-1,3.1-1.8,4-5c0.7-2.6,0.7-7.5,0.7-11.3v-22.8c0-7.1-0.9-10.1-2.4-12.3
		c-2.1-2.8-5-4.1-8.9-4.1c-8.5,0-14.9,6.4-16.9,13.9c-1.1,4.1-1.4,9.1-1.4,14.2v11.2c0,3.8-0.1,8.5,0.7,11.6
		c0.9,3.1,1.8,3.7,4.3,4.7c1,0.4,2.3,0.7,3.5,0.8v0.6h-24.9v-0.6c1-0.1,1.7-0.3,3-0.7c2.4-0.9,4-1.4,4.5-5c0.4-2.6,0.6-6.8,0.6-10.3
		v-66c0-2.3,0-5.4-0.4-7.8c-0.4-2.1-1.3-3-2.8-4c-1.7-1.1-3.8-1.6-5.5-1.8v-0.7h16.6c0.6,0,0.9,0.3,0.9,1.3c0,3.1-0.1,11.5-0.1,16.9
		v33.6h0.1c2.3-6.5,6.7-9.9,9.9-11.9c3-1.8,7.7-3.3,12-3.3c5.4,0,9.4,1.1,12,4.1c2.3,2.6,3.8,6,3.8,13.5v26.2
		c0,3.5,0.1,7.4,0.7,10.1c0.7,3,1.6,3.8,4,5c1,0.4,2.4,0.9,3.3,1v0.6H170.9z"/>
	<path d="M201.7,183.4v-0.6c0.9-0.1,2.4-0.4,3.5-1c1.6-0.7,3-2,3.5-3.8c0.7-2.4,0.7-4.4,0.7-7.1v-30c0-2.4,0-8.9-0.3-10.6
		c-0.3-1.8-1.1-3.3-2.3-4.1c-1-0.7-2-1-4.4-1.1v-0.7h14.6c0.7,0,1,0.3,1,1c0,2.1-0.1,5.1-0.1,8.8v36.8c0,2.3,0,4,0.4,5.8
		c0.9,3.4,2.4,4.4,3.8,5.1c1.1,0.6,2.6,0.9,3.5,1v0.6H201.7z M213.6,94.5c3.4,0,6,2.6,6,6c0,3.3-2.6,5.8-6,5.8
		c-3.3,0-5.8-2.6-5.8-5.8C207.8,97,210.3,94.5,213.6,94.5z"/>
	<path d="M268.7,183.4v-0.6c1-0.1,2.1-0.4,3-0.7c2.8-1,3.8-1.7,4.7-5c0.9-3.1,0.6-7.5,0.6-11.5v-22.8c0-7.2-0.7-10.1-2.6-12.3
		c-1.8-2.3-4.7-3.7-8.8-3.7c-6.8,0-13.9,4.5-16,14c-1,4.5-1.1,7.2-1.1,13.6v11.2c0,4,0.1,9.1,0.7,11.6c0.7,3,1.7,3.7,4.7,4.8
		c1.1,0.4,2.1,0.6,3,0.7v0.6h-25.5v-0.6c0.9-0.1,2.1-0.4,3-0.7c3.3-1.1,4.8-2.1,5.4-6c0.3-2.1,0.3-7.2,0.3-11.3v-24
		c0-2.4,0-8.6-0.3-10.6c-0.3-2.4-1-3.4-2.3-4.3c-1.1-0.9-3.3-1-4.4-1.1v-0.6h14.9c0.6,0,0.9,0.1,0.9,0.8c0,0.7-0.3,13.2-0.3,13h0.3
		c2.3-6.5,6.1-9.8,9.2-11.8c2.8-1.8,7.5-3.4,12.3-3.4c4.7,0,8.1,1.1,10.8,3.5c2.4,2.3,4.4,6.1,4.4,13.6v26.6c0,3.7-0.1,7.7,0.4,10.1
		c0.7,3,1.4,3.8,4.3,5.1c1,0.4,2.3,0.7,3.1,0.8v0.6H268.7z"/>
	<path d="M342.8,183.9c-0.4,0-0.6-0.1-0.6-0.7c0-0.6,0.1-3.4,0.1-4.7v-5.7h-0.1c-2.6,6.2-8.8,11.8-18,11.8
		c-12.8,0-24.5-8.9-24.5-30.8c0-21.5,13.7-30.9,27.1-30.9c8.9,0,13.5,5.5,15.6,10.9v-29.3c0-5.2,0.1-9.5-0.1-11.8
		c-0.3-2.1-0.9-3.5-2.4-4.5c-1.3-1-3.3-1.1-4.8-1.3v-0.6h15.6c0.7,0,0.7,0.3,0.7,1.1c0,5.4-0.4,18.3-0.4,25.5v56.1
		c0,2.3,0,5.7,0.3,7.8c0.3,2.3,1,3.7,2.8,4.8c1.3,0.9,3.8,1.1,4.5,1.1v0.6C356.4,183.5,343.8,183.9,342.8,183.9z M342.3,145.4
		c0-9.4-2.6-14-5.5-17c-2.4-2.4-5.1-3.7-9.8-3.7c-9.8,0-17.7,9.8-17.7,29.5c0,20.3,8.2,28.2,17.1,28.2c10.3,0,15.9-8.8,15.9-20.7
		V145.4z"/>
	<path d="M412,126.2l-10.1,31.2c-2.6,7.9-5.5,17.9-5.5,20.5c0,1.3,0.6,2,1.7,2c4.1,0,9.4-5.8,13.7-12.5l1.4,0.7
		c-5,7.7-11.9,16.4-19,16.4c-3.4,0-6.1-2.4-6.1-6.8c0-4.8,4.8-17.7,7.8-27.2l7.8-24.4h-7.4l0.6-2h7.4l6.7-22h8.4l-6.7,22h12.6
		l-0.6,2H412z"/>
	<path d="M458.5,184.6c-3.8,0-6-2.4-6-5.8c0-5.1,3.5-14.5,8.1-28.2c2.8-8.6,6.2-17.9,6.2-21c0-2.4-1.3-3.1-2.7-3.1
		c-6.7,0-18.8,11.1-29.1,35.3c-2.6,6-5.4,14.7-7.7,21.5h-8.2l27.4-82.9c1.3-4.3,2.1-6.7,2.1-9.2c0-1-0.1-2-1.1-2.8
		c-0.9-0.7-2.6-1.1-4.5-1.3l0.3-0.7h14.9c0.6,0,0.7,0.4,0.7,0.7c0,0.7-1,3.1-1.8,5.7c-1.4,4-2.3,6.7-4.3,12.8l-14.3,43.5h0.6
		c10.2-17.4,20.4-26.5,28.8-26.5c5,0,6.8,3.3,6.8,7.7c0,5.2-4.5,17.6-8.1,27.9c-3.3,9.5-5.8,17.3-5.8,20c0,1.6,0.7,1.8,1.8,1.8
		c4.4,0,10.1-6.7,13.7-12.3l1.4,0.7C473.5,175.3,466.3,184.6,458.5,184.6z"/>
	<path d="M494.5,155.3c-1.4,5.4-2.1,10.8-2.1,14.9c0,8.6,3,11.9,8.4,11.9c8.1,0,15.2-9.1,18.3-15.4l1.4,0.7
		c-4.5,8.8-12,17.3-22.1,17.3c-8.8,0-14.2-7.7-14.2-18.3c0-12.2,5.1-23.8,14.2-33.4c5.7-6.1,12.6-9.9,18.7-9.9
		c6.2,0,9.9,3.1,9.9,8.4c0,4-1.7,7.1-5.1,9.8C515.2,146.5,503.1,152.2,494.5,155.3z M494.9,153.6c6.9-2.6,15.9-6.5,19.8-11.2
		c2.8-3.4,4-7.7,4-11.8c0-3-1.1-5.8-4.3-5.8C505.9,124.8,498.6,139.6,494.9,153.6z"/>
	<path d="M599.8,185.3c-22.8,0-41.4-17.9-41.4-48.6c0-29.9,19.4-48.3,41.8-48.3c13,0,23.7,5.4,29.1,10.2h0.4l1.8-5h1.3v29.8h-1
		c-2-8.2-4-13.5-6.8-18.3c-5.7-9.5-13.5-14.7-24.9-14.7c-6.8,0-14.9,2.3-21.3,11.3c-5.2,7.4-9.5,19-9.5,35c0,21.7,8.2,33.3,15.3,39
		c6,4.7,12.6,5.5,18,5.5c10.9,0,24.7-4.5,30.6-29.1l1.4,0.4C630.7,172.7,617.2,185.3,599.8,185.3z"/>
	<path d="M671,184.6c-14.3,0-27.9-11.6-27.9-30.9c0-19.3,13.7-30.8,27.9-30.8c14.3,0,27.8,11.3,27.8,30.5S685.4,184.6,671,184.6z
		 M682,129.2c-3.7-4-7.1-4.8-10.9-4.8c-3.8,0-7.5,1.3-10.8,4.7c-4.7,5-7.5,13.3-7.5,24.5c0,10.8,3,19.6,7.4,24.7c3.3,4,7.2,5,10.9,5
		c3.8,0,7.4-0.9,10.9-4.8c4.3-5.1,7.2-14,7.2-24.8C689.2,143,686.5,134.2,682,129.2z"/>
	<path d="M748.4,183.6c-0.4,0-0.7-0.4-0.7-0.9c0-1.1,0.1-2.8,0.1-4.7v-6.7h-0.3c-2.3,4.7-4.1,6.9-6.5,8.9c-3.1,2.6-7.1,4.3-11.9,4.3
		c-3.8,0-9.6-0.6-13.7-5.5c-1.8-2.3-3.7-5.4-3.7-12l0.1-28.8c0-2.4,0-5.2-0.3-7.5c-0.3-2.4-0.7-3.8-2.3-4.8c-1.4-0.9-3-1-5-1.1v-0.6
		h15.3c0.4,0,0.9,0.1,0.9,1.1c0,3.7-0.1,11.3-0.1,16.7v25.8c0,4.7,1,8.1,2.8,10.3c2.4,3,4.8,4.1,9.1,4.1c6.9,0,11.6-6,14.2-12.3
		c1.1-3,1.3-9.2,1.3-13.3v-17.6c0-2.1,0-6.4-0.3-8.4c-0.3-2.3-0.7-3.5-2.3-4.7c-1.4-1-3.8-1.3-5-1.4v-0.4h15.2c0.4,0,1,0.1,1,1.1
		c0,3.7-0.1,11.6-0.1,17v26.4c0,2.3,0,5.4,0.3,7.8c0.3,2.3,1,4.1,2.7,5.1c1.4,0.8,3.4,1,5,1.1v0.6
		C761.3,183.4,749.3,183.6,748.4,183.6z"/>
	<path d="M804.8,183.4v-0.6c1-0.1,2.1-0.4,3-0.7c2.8-1,3.8-1.7,4.7-5c0.9-3.1,0.6-7.5,0.6-11.5v-22.8c0-7.2-0.7-10.1-2.6-12.3
		c-1.8-2.3-4.7-3.7-8.8-3.7c-6.8,0-13.9,4.5-16,14c-1,4.5-1.1,7.2-1.1,13.6v11.2c0,4,0.1,9.1,0.7,11.6c0.7,3,1.7,3.7,4.7,4.8
		c1.1,0.4,2.1,0.6,3,0.7v0.6h-25.5v-0.6c0.8-0.1,2.1-0.4,3-0.7c3.3-1.1,4.8-2.1,5.4-6c0.3-2.1,0.3-7.2,0.3-11.3v-24
		c0-2.4,0-8.6-0.3-10.6c-0.3-2.4-1-3.4-2.3-4.3c-1.1-0.9-3.3-1-4.4-1.1v-0.6H784c0.6,0,0.8,0.1,0.8,0.8c0,0.7-0.3,13.2-0.3,13h0.3
		c2.3-6.5,6.1-9.8,9.2-11.8c2.8-1.8,7.5-3.4,12.3-3.4c4.7,0,8.1,1.1,10.8,3.5c2.4,2.3,4.4,6.1,4.4,13.6v26.6c0,3.7-0.1,7.7,0.4,10.1
		c0.7,3,1.4,3.8,4.3,5.1c1,0.4,2.3,0.7,3.1,0.8v0.6H804.8z"/>
	<path d="M868.6,176.1c-2.1,4.4-7.4,8.5-13.9,8.5c-5.4,0-8.6-1.1-11.1-3.3c-2-1.8-3-4.3-3-8.9c0-2.8,0.4-39.4,0.6-46.3
		c-2.3,0-6.4-0.3-8.4-0.4v-0.6c6.8-0.8,11.8-5.4,16.2-21h0.7v20.1h15.3v2h-15.3l-0.6,47.8c0,5.1,1.8,7.5,8.2,7.5
		c4.3,0,8.2-2,10.6-5.8L868.6,176.1z"/>
	<path d="M886.3,175.8c3.3,3.7,7.4,5.4,12.2,5.4c11.8,0,16.6-7.2,19-17l1.6,0.4c-2.8,13-10.3,20-21.3,20c-8.1,0-15.2-1.8-20.5-8.1
		c-5.2-6.1-7.1-13-7.1-22.1c0-18,10.2-31.5,26.1-31.5c16.4,0,23.1,11.3,23.1,21.1c0,1.3,0,3.5-0.1,5.2h-39.4v1.8
		C879.7,161.2,881.8,170.7,886.3,175.8z M879.9,147.6h24.5c4.7,0,5.5-0.9,5.5-6.8c0-6.9-2.1-11.1-4.8-13.2c-2.6-2-5.1-3-8.8-3
		c-3.7,0-6.9,1.1-9.5,3.4C882.8,131.6,880.7,137.7,879.9,147.6z"/>
	<path d="M961.6,134.6c-3.3,0-4.3-2.3-5.2-4.4c-0.9-1.8-1.8-2.6-3.5-2.6c-3.8,0-9.9,9.4-10.9,18.8c-0.1,1.1-0.3,4.8-0.3,8.4v10.8
		c0,3.8-0.1,8.8,0.6,11.8c0.7,2.8,1.7,3.5,3.3,4.3c1.7,0.7,3.1,1,4,1.1v0.6h-24.1v-0.6c0.8-0.1,2-0.3,3.5-1c2-0.8,2.8-1.4,3.7-4.8
		c0.7-2.7,0.6-6.8,0.6-10.3v-25.8c0-2.4,0-8.5-0.3-10.5c-0.3-2.1-1.3-3.5-2.4-4.3c-1.6-1-3.1-1-4.3-1.1v-0.7h14.7
		c0.6,0,0.9,0.6,0.9,0.8c0-0.7-0.1,14.9-0.1,15h0.1c2-6.7,5-10.9,7.8-13.3c2.4-2,5.4-3.8,9.8-3.8c2.1,0,4.3,0.7,5.5,2
		c1.1,1.1,1.4,2.7,1.4,4.5C966.3,131.9,964.7,134.6,961.6,134.6z"/>
</g>
</svg>
