<svg version="1.1" id="calendar" xmlns="http://www.w3.org/2000/svg" xmlns:xlink="http://www.w3.org/1999/xlink" x="0px" y="0px"
	 viewBox="0 0 46.4 45.6" enable-background="new 0 0 46.4 45.6" xml:space="preserve">
<g>
	<path d="M34.3,3.2c-0.4-1.8-2-3.2-3.9-3.2c-0.4,0-0.8,0.4-0.8,0.8c0,0.4,0.4,0.8,0.8,0.8c1.3,0,2.4,1.1,2.4,2.4s-1.1,2.4-2.4,2.4
		c-0.4,0-0.8,0.4-0.8,0.8C29.6,7.6,30,8,30.4,8c1.9,0,3.5-1.4,3.9-3.2h10.5v5.6H1.6V4.8h13.6C15.6,4.8,16,4.4,16,4
		c0-0.4-0.4-0.8-0.8-0.8h-1.5C14.1,2.3,15,1.6,16,1.6c1.3,0,2.4,1.1,2.4,2.4S17.3,6.4,16,6.4c-0.4,0-0.8,0.4-0.8,0.8
		C15.2,7.6,15.6,8,16,8c2.2,0,4-1.8,4-4s-1.8-4-4-4c-1.9,0-3.5,1.4-3.9,3.2H0v42.4h46.4V3.2H34.3z M24,12h9.6v9.6H24V12z M33.6,32.8
		H24v-9.6h9.6V32.8z M12.8,23.2h9.6v9.6h-9.6V23.2z M12.8,12h9.6v9.6h-9.6V12z M1.6,12.8V12h9.6v9.6H1.6V12.8z M1.6,23.2h9.6v9.6
		H1.6V23.2z M1.6,44v-9.6h9.6V44H1.6z M12.8,44v-9.6h9.6V44H12.8z M24,44v-9.6h9.6V44H24z M44.8,44h-9.6v-9.6h9.6V44z M44.8,32.8
		h-9.6v-9.6h9.6V32.8z M35.2,21.6V12h9.6v9.6H35.2z M35.2,21.6"/>
	<path d="M20.8,1.6c1.3,0,2.4,1.1,2.4,2.4s-1.1,2.4-2.4,2.4c-0.4,0-0.8,0.4-0.8,0.8C20,7.6,20.4,8,20.8,8c2.2,0,4-1.8,4-4
		s-1.8-4-4-4C20.4,0,20,0.4,20,0.8C20,1.2,20.4,1.6,20.8,1.6L20.8,1.6z M20.8,1.6"/>
	<path d="M25.6,1.6C26.9,1.6,28,2.7,28,4s-1.1,2.4-2.4,2.4c-0.4,0-0.8,0.4-0.8,0.8c0,0.4,0.4,0.8,0.8,0.8c2.2,0,4-1.8,4-4
		s-1.8-4-4-4c-0.4,0-0.8,0.4-0.8,0.8C24.8,1.2,25.2,1.6,25.6,1.6L25.6,1.6z M25.6,1.6"/>
	<path d="M25,31.8c0.2,0.2,0.4,0.2,0.6,0.2c0.2,0,0.4-0.1,0.6-0.2l2.6-2.6l2.6,2.6c0.2,0.2,0.4,0.2,0.6,0.2s0.4-0.1,0.6-0.2
		c0.3-0.3,0.3-0.8,0-1.1L29.9,28l2.6-2.6c0.3-0.3,0.3-0.8,0-1.1c-0.3-0.3-0.8-0.3-1.1,0l-2.6,2.6l-2.6-2.6c-0.3-0.3-0.8-0.3-1.1,0
		c-0.3,0.3-0.3,0.8,0,1.1l2.6,2.6L25,30.6C24.7,30.9,24.7,31.5,25,31.8L25,31.8z M25,31.8"/>
</g>
</svg>
