<svg version="1.1" id="communication" xmlns="http://www.w3.org/2000/svg" xmlns:xlink="http://www.w3.org/1999/xlink" x="0px"
	 y="0px" viewBox="0 0 391.6 341.2" enable-background="new 0 0 391.6 341.2"
	 xml:space="preserve">
<g>
	<path d="M358,117.4h-87c-2.6,0-4.8,2.2-4.8,4.8c0,2.6,2.2,4.8,4.8,4.8h87c13.1,0,23.8,10.7,23.8,23.8V257
		c0,13.1-10.7,23.8-23.8,23.8h-22.5c-2.6,0-4.8,2.2-4.8,4.8v39.4l-44.8-42.9c-0.9-0.9-2.1-1.4-3.3-1.4h-98.5
		c-13.1,0-23.8-10.7-23.8-23.8v-54.2c0-2.6-2.2-4.8-4.8-4.8c-2.6,0-4.8,2.2-4.8,4.8V257c0,18.4,15,33.4,33.4,33.4h96.6l51.5,49.4
		c0.9,0.9,2.1,1.4,3.4,1.4c0.6,0,1.3-0.2,1.9-0.4c1.8-0.7,2.9-2.5,2.9-4.4v-45.9h17.7c18.4,0,33.4-15,33.4-33.4V150.9
		C391.4,132.5,376.5,117.4,358,117.4L358,117.4z M358,117.4"/>
	<path d="M209,0H33.7C15.1,0,0,15.1,0,33.7v107c0,18.6,15.1,33.7,33.7,33.7h17.8v46.2c0,1.9,1.1,3.7,2.9,4.4
		c0.6,0.2,1.3,0.4,1.9,0.4c1.2,0,2.4-0.5,3.4-1.4l51.9-49.8H209c18.6,0,33.7-15,33.7-33.6v-107C242.6,15.1,227.5,0,209,0L209,0z
		 M233,140.6c0,13.3-10.8,24.1-24.1,24.1h-99.3v-0.1c-1.2,0-2.4,0.5-3.3,1.4l-45.2,43.3v-39.8c0-1.3-0.5-2.5-1.4-3.4
		c-0.9-0.9-2.2-1.4-3.4-1.4H33.7c-13.3,0-24.1-10.8-24.1-24.1V33.7c0-13.3,10.8-24.1,24.1-24.1H209c13.3,0,24.1,10.8,24.1,24.1
		V140.6z M233,140.6"/>
</g>
</svg>
