<svg version="1.1" id="my-business" xmlns="http://www.w3.org/2000/svg" xmlns:xlink="http://www.w3.org/1999/xlink" x="0px" y="0px"
	 viewBox="0 0 391 255.8" enable-background="new 0 0 391 255.8" xml:space="preserve">
<g>
	<g>
		<defs>
			<rect id="SVGID_1_" width="391" height="255.8"/>
		</defs>
		<clipPath id="SVGID_2_">
			<use xlink:href="#SVGID_1_"  overflow="visible"/>
		</clipPath>
		<path clip-path="url(#SVGID_2_)" d="M263.3,50l-98.8-34.1c-9.4-3.2-19.8-2.6-28.8,1.8l-5,2.4c-6.7,3.3-14.6,3.8-21.7,1.2l-8.5-3
			c-0.4-0.2-0.8-0.5-1.2-0.6L48.8,0.4c-1.2-0.4-2.6-0.3-3.7,0.2c-1.1,0.6-2,1.5-2.4,2.7L0.3,127.3c-0.9,2.5,0.5,5.2,3,6.1l50.6,17.4
			c0.6,0.2,1,0.3,1.6,0.3c0.7,0,1.4-0.2,2.1-0.5c1.1-0.6,2-1.5,2.4-2.7l40.9-119.2l5.1,1.8c9.4,3.4,20.1,2.7,29.1-1.7l5-2.4
			c6.6-3.3,14.5-3.8,21.4-1.4l95.1,32.8c-0.7,4.2-2.7,11-7.9,14.6c-4.6,3.2-11.4,3.4-19.8,0.4l-41.5-14.2c-1.3-0.4-2.6-0.3-3.8,0.3
			c-1.2,0.6-2,1.8-2.4,3c-0.1,0.2-6.2,23-25.4,33.2c-12.2,6.6-27.2,6.8-44.7,0.8c-2.5-0.9-5.2,0.5-6.1,3c-0.9,2.5,0.5,5.2,3,6.1
			c9.4,3.2,18.2,4.8,26.5,4.8c9.4,0,18.1-2.1,25.9-6.3c17.1-9.2,25.4-26,28.5-34.3l36.9,12.6c11.6,4,21.1,3.4,28.5-1.6
			c11.8-8.2,12.4-25,12.5-25.7C266.6,52.6,265.2,50.6,263.3,50L263.3,50z M52.5,140.1l-41.6-14.2L50.3,11l40.5,13.8l1,0.5l0.2,0.1
			L52.5,140.1z M52.5,140.1"/>
		<path clip-path="url(#SVGID_2_)" d="M390.2,121L332.4,3.6c-0.6-1.1-1.5-2-2.7-2.4c-1.2-0.4-2.6-0.3-3.7,0.2L277.9,25
			c-2.4,1.2-3.4,4-2.2,6.4l56,114.4L312.9,163c-15.9,14.6-33.9,26.9-53.4,36.4l-92.1,45c-2.6,1.3-5.4,1.4-8.2,0.5
			c-2.7-1-4.9-2.9-6.2-5.4c-1.3-2.6-1.4-5.4-0.5-8.2c1-2.7,2.9-4.9,5.4-6.2l51.4-25.2c2.4-1.2,3.4-4,2.2-6.4
			c-1.2-2.4-4.1-3.4-6.4-2.2l-50.3,24.6l-25.4,12.4c-5.3,2.6-11.8,0.4-14.3-4.9c-2.6-5.3-0.4-11.7,4.9-14.3l73.9-36.2
			c2.4-1.2,3.4-4,2.2-6.4c-1.2-2.4-4.1-3.4-6.4-2.2l-54.7,26.8l-19.2,9.4l-9,4.4c-5.3,2.6-11.8,0.4-14.3-4.9
			c-2.6-5.3-0.4-11.8,4.9-14.3l9.1-4.5l66.2-32.4c2.4-1.2,3.4-4,2.2-6.4c-1.2-2.4-4.1-3.4-6.4-2.2L126.3,161l-23.7,11.6
			c-2.6,1.3-5.4,1.4-8.2,0.5c-2.7-1-4.9-2.9-6.2-5.4c-1.3-2.6-1.4-5.4-0.5-8.2c1-2.7,2.9-4.9,5.4-6.2l35.1-17.2
			c2.4-1.2,3.4-4,2.2-6.4c-1.2-2.4-4.1-3.4-6.4-2.2l-35.1,17.2c-4.9,2.4-8.6,6.6-10.3,11.7c-1.8,5.1-1.4,10.6,1,15.5
			c1.8,3.8,4.9,6.9,8.6,8.9c-6.1,6-7.9,15.4-4,23.4c3.5,7.2,10.7,11.4,18.2,11.4c0.9,0,1.8-0.1,2.6-0.2c-0.6,4-0.2,8.2,1.8,12.2
			c3.5,7.2,10.7,11.4,18.2,11.4c3,0,6-0.6,8.9-2.1l8.7-4.3c-0.4,3.8,0.2,7.5,2,11c2.4,4.9,6.6,8.6,11.7,10.3
			c2.2,0.7,4.4,1.1,6.6,1.1c3,0,6.1-0.7,8.9-2.1l92.1-45c20.3-9.9,39-22.7,55.6-38l20.9-19.2l47.4-23.2
			C390.3,126.2,391.3,123.4,390.2,121L390.2,121z M339.8,140.5l-53.4-109l39.5-19.3l53.3,109L339.8,140.5z M339.8,140.5"/>
	</g>
</g>
</svg>
