<svg version="1.1" id="notification" xmlns="http://www.w3.org/2000/svg" xmlns:xlink="http://www.w3.org/1999/xlink" x="0px"
	 y="0px" viewBox="0 0 243.7 275" enable-background="new 0 0 243.7 275" xml:space="preserve">
<g>
	<g>
		<defs>
			<rect id="SVGID_1_" width="243.7" height="275"/>
		</defs>
		<clipPath id="SVGID_2_">
			<use xlink:href="#SVGID_1_"  overflow="visible"/>
		</clipPath>
		<path clip-path="url(#SVGID_2_)" d="M240.2,226.5c-23.3-23.2-35.1-50.6-35.1-81.5v-45c0.2-34.3-22.9-57-42.6-66.1
			c-5.7-2.6-11.5-4.6-17.5-6.1V25c0-13.8-11.2-25-25-25c-13.8,0-25,11.2-25,25v3.3c-5.3,1.5-10.6,3.3-15.7,5.7
			C57.4,44.1,35.2,68.4,35,100v45c0,31.9-11.3,59.3-33.6,81.5c-1.3,1.3-1.8,3.2-1.2,5c0.6,1.8,2.1,3.1,3.9,3.4l47.5,8.2
			c8.8,1.5,17,2.8,24.7,3.8c8.7,17.1,25.9,28.1,44.6,28.1s35.9-11,44.6-28.1c7.7-1,15.8-2.3,24.6-3.8l47.4-8.2
			c1.9-0.3,3.4-1.7,3.9-3.4C242,229.7,241.5,227.8,240.2,226.5L240.2,226.5z M105,25c0-8.3,6.7-15,15-15c8.3,0,15,6.7,15,15v0.9
			c-10-1.4-20.1-1.4-30,0.2V25z M120.9,265c-12.7,0-24.5-6.3-32.1-16.6c11.2,1.2,21.6,1.7,32,1.7c10.5,0,20.9-0.6,32.1-1.7
			C145.4,258.7,133.6,265,120.9,265L120.9,265z M188.4,233.3c-9.6,1.6-18.4,3-26.7,4.1h0c-3.7,0.5-7.2,0.9-10.7,1.2c0,0-0.1,0-0.1,0
			c-3.2,0.3-6.3,0.6-9.4,0.8c-0.6,0-1.2,0.1-1.8,0.1c-2.7,0.2-5.3,0.3-7.9,0.4c-0.5,0-1.1,0-1.6,0.1c-6.2,0.2-12.3,0.2-18.6,0
			c-0.5,0-1.1,0-1.7-0.1c-2.6-0.1-5.2-0.2-7.8-0.4c-0.6,0-1.2-0.1-1.9-0.1c-3-0.2-6-0.5-9.1-0.8c-0.1,0-0.2,0-0.3,0
			c-3.5-0.3-7-0.8-10.6-1.2h-0.1c-8.3-1-17.2-2.4-26.8-4.1L15,226.7c19.9-22.8,30-50.2,30-81.7v-45c0.2-27.2,19.4-48.2,38.5-57
			c5.7-2.6,11.5-4.5,17.5-5.9c0,0,0.1,0,0.1,0c12.3-2.8,25.4-2.9,37.9-0.3c0.1,0,0.2,0,0.2,0c6.5,1.4,12.9,3.4,19.1,6.3
			c18.4,8.4,37,29.3,36.8,57v45c0,30.2,10.9,58.2,31.6,81.7L188.4,233.3z M188.4,233.3"/>
	</g>
	<path d="M152.1,56.7"/>
</g>
</svg>
