<?xml version="1.0" encoding="utf-8"?>
<!-- Generator: Adobe Illustrator 20.0.0, SVG Export Plug-In . SVG Version: 6.00 Build 0)  -->
<svg version="1.1" id="Layer_1" xmlns="http://www.w3.org/2000/svg" xmlns:xlink="http://www.w3.org/1999/xlink" x="0px" y="0px"
	 width="389.8px" height="355px" viewBox="0 0 389.8 355" enable-background="new 0 0 389.8 355" xml:space="preserve">
<g>
	<g>
		<defs>
			<rect id="SVGID_1_" width="389.8" height="355"/>
		</defs>
		<clipPath id="SVGID_2_">
			<use xlink:href="#SVGID_1_"  overflow="visible"/>
		</clipPath>
		<path clip-path="url(#SVGID_2_)" d="M246.3,62h-59.7v-0.6c0-33.7-27.4-61-61-61c-33.7,0-61,27.4-61,61V62H4.8
			C2.2,62,0,64.2,0,66.8v238.9c0,26.6,21.6,48.2,48.2,48.2h111.7c2.6,0,4.8-2.2,4.8-4.8c0-2.6-2.2-4.8-4.8-4.8H48.2
			C27,344.3,9.6,327,9.6,305.7V71.6h55V105c0,2.6,2.2,4.8,4.8,4.8c2.6,0,4.8-2.2,4.8-4.8V71.6H177V105c0,2.6,2.2,4.8,4.8,4.8
			c2.6,0,4.8-2.2,4.8-4.8V71.6h54.9v19c0,2.6,2.2,4.8,4.8,4.8c2.6,0,4.8-2.2,4.8-4.8V66.8C251.1,64.2,249,62,246.3,62L246.3,62z
			 M177,62H74.2v-0.6c0-28.4,23-51.4,51.4-51.4C154,9.9,177,33,177,61.4V62z M177,62"/>
		<path clip-path="url(#SVGID_2_)" d="M385.1,170.6h-47.3v-12.4c-0.1-27.1-22.2-49.3-49.4-49.3c-27.2,0-49.4,22.2-49.4,49.4v12.4
			h-47.3c-2.6,0-4.8,2.2-4.8,4.8v160.4c0,9.9,8.1,18.1,18.1,18.1h166.7c9.9,0,18.1-8.1,18.1-18.1V175.4
			C389.9,172.8,387.8,170.6,385.1,170.6L385.1,170.6z M288.5,118.6c21.9,0,39.8,17.8,39.8,39.8v12.4h-79.4v-12.4h-0.1
			C248.7,136.4,266.6,118.6,288.5,118.6L288.5,118.6z M380.3,335.8c0,4.6-3.8,8.5-8.5,8.5H205.1c-4.6,0-8.5-3.8-8.5-8.5V180.2h42.5
			v23.1c0,2.6,2.2,4.8,4.8,4.8c2.6,0,4.8-2.2,4.8-4.8v-23.1h79.4v23.1c0,2.6,2.2,4.8,4.8,4.8c2.6,0,4.8-2.2,4.8-4.8v-23.1h42.6
			V335.8z M380.3,335.8"/>
	</g>
</g>
</svg>
