<?xml version="1.0" encoding="utf-8"?>
<!-- Generator: Adobe Illustrator 20.0.0, SVG Export Plug-In . SVG Version: 6.00 Build 0)  -->
<svg version="1.1" id="Layer_1" xmlns="http://www.w3.org/2000/svg" xmlns:xlink="http://www.w3.org/1999/xlink" x="0px" y="0px"
	 width="132.3px" height="134px" viewBox="0 0 132.3 134" enable-background="new 0 0 132.3 134" xml:space="preserve">
<g>
	<g id="XMLID_1_">
		<g>
			<path fill="#030202" d="M132,14v9.9c0,1.7-1.4,3.1-3.2,3.1h-10.2c-1.3,0-2.4-0.7-2.9-1.8c-1.8,2.6-4.8,4.7-8.4,6
				c1,21.6,4.6,96.6,4.6,96.7c0,3.2-2.6,5.9-5.8,5.9H92.4c-3.2,0-5.9-2.6-5.9-6c0,0,3.6-75.8,4.6-97c-2.9-1.2-5.3-2.9-7-5v5.7
				c0,1.7-1.4,3.1-3.2,3.1H69.6c-1.8,0-3.2-1.4-3.2-3.1V7.6c0-1.7,1.4-3.1,3.2-3.1H81c1.8,0,3.2,1.4,3.2,3.1v5.7
				c3-3.9,8.8-6.6,15.5-6.6c6.8,0,12.7,2.8,15.7,6.8c0.2-1.5,1.6-2.6,3.2-2.6h10.2C130.6,10.9,132,12.3,132,14z M106,128.9
				c0.6,0,1.1-0.5,1.1-1.1c0,0.1-3.5-72.7-4.5-95.7c-0.9,0.1-1.8,0.2-2.8,0.2c-1.3,0-2.6-0.1-3.8-0.3c-1.1,22.6-4.5,95.9-4.5,95.8
				c0,0.6,0.5,1.1,1.1,1.1H106z"/>
			<path fill="#030202" d="M53.5,12.2v23.7L37.4,46.3l6.2,81.9l-1.3,0.8c-0.3,0.2-7.9,4.4-15.6,4.4c-7.7,0-15-4.3-15.3-4.5l-1.3-0.8
				l6.1-81.9L0.2,35.9V12.2l18.2-12h3.4v23.1H22h9.8h0.1V0.2h3.4L53.5,12.2z M48.7,33.3V14.7h0l-12-7.8v21.2H17.1V7l0,0L5,14.8h0
				v18.4h0l16.3,10.5l-6.1,81.7c2.3,1.1,7,3.1,11.6,3.1c4.5,0,9.5-2,11.9-3.1l-6.1-81.7L48.7,33.3z"/>
		</g>
		<g>
		</g>
	</g>
</g>
</svg>
