<?xml version="1.0" encoding="utf-8"?>
<!-- Generator: Adobe Illustrator 20.0.0, SVG Export Plug-In . SVG Version: 6.00 Build 0)  -->
<svg version="1.1" id="training" xmlns="http://www.w3.org/2000/svg" xmlns:xlink="http://www.w3.org/1999/xlink" x="0px" y="0px"
	 width="175.9px" height="139.2px" viewBox="0 0 175.9 139.2" enable-background="new 0 0 175.9 139.2" xml:space="preserve">
<path d="M113.9,7.6v5.2c31.3,0,56.8,25.5,56.8,56.8s-25.5,56.8-56.8,56.8v5.2c34.2,0,62-27.8,62-62S148.1,7.6,113.9,7.6z"/>
<path d="M100.2,55V0h-3.8c-16.7,0-39.5,27.4-47,46.3H21.6H0v46.6h21.6h27.8c7.4,18.9,30.2,46.3,47,46.3h3.8v-55
	c7.6-0.5,13.7-6.8,13.7-14.6C113.9,61.9,107.8,55.5,100.2,55z M21.5,53.9v31.4H7.7V53.9H21.5L21.5,53.9L21.5,53.9z M92.5,131
	c-12.9-4.5-32.1-27.4-36.9-42.9l-0.8-2.7H29.2v-0.1V54h25.7l0.8-2.7C60.5,35.8,79.6,13,92.5,8.4v0h0.1c0,0-0.1,0-0.1,0V131z"/>
<path d="M92.5,8.4L92.5,8.4C92.5,8.4,92.6,8.4,92.5,8.4L92.5,8.4z"/>
<path d="M140.3,69.6c0,14.6-11.8,26.4-26.4,26.4v5.2c17.4,0,31.6-14.2,31.6-31.6S131.3,38,113.9,38v5.2
	C128.5,43.2,140.3,55.1,140.3,69.6z"/>
<path d="M156,69.6c0,23.2-18.9,42.1-42.1,42.1v5.2c26.1,0,47.3-21.2,47.3-47.3c0-26.1-21.2-47.3-47.3-47.3v5.2
	C137.1,27.5,156,46.4,156,69.6z"/>
</svg>
